<svg width="32" height="32" viewBox="0 0 32 32" fill="none" xmlns="http://www.w3.org/2000/svg">
<g id="Arrow right alt">
<path id="Vector" d="M17.3 20.85C17.1 20.65 17.004 20.4083 17.012 20.125C17.0207 19.8417 17.125 19.6 17.325 19.4L20.15 16.575H9C8.71667 16.575 8.479 16.479 8.287 16.287C8.09567 16.0957 8 15.8583 8 15.575C8 15.2917 8.09567 15.054 8.287 14.862C8.479 14.6707 8.71667 14.575 9 14.575H20.15L17.3 11.725C17.1 11.525 17 11.2873 17 11.012C17 10.7373 17.1 10.5 17.3 10.3C17.5 10.1 17.7377 10 18.013 10C18.2877 10 18.525 10.1 18.725 10.3L23.3 14.875C23.4 14.975 23.471 15.0833 23.513 15.2C23.5543 15.3167 23.575 15.4417 23.575 15.575C23.575 15.7083 23.5543 15.8333 23.513 15.95C23.471 16.0667 23.4 16.175 23.3 16.275L18.7 20.875C18.5167 21.0583 18.2877 21.15 18.013 21.15C17.7377 21.15 17.5 21.05 17.3 20.85Z" fill="#71717A"/>
</g>
</svg>
