<svg width="28" height="28" viewBox="0 0 28 28" fill="none" xmlns="http://www.w3.org/2000/svg">
<g id="Checklist" clip-path="url(#clip0_146_2702)">
<path id="Vector" d="M14 2.33333C13.7456 2.33333 13.496 2.33567 13.251 2.33917L12.5323 2.359L12.1835 2.37417L11.508 2.41383L10.8628 2.4675C5.28031 3.00883 3.00881 5.28033 2.46748 10.8628L2.41381 11.508L2.37415 12.1835C2.36831 12.2978 2.36248 12.4145 2.35898 12.5323L2.33915 13.251L2.33448 13.622L2.33331 14C2.33331 14.2543 2.33565 14.504 2.33915 14.749L2.35898 15.4677L2.37415 15.8165L2.41381 16.492L2.46748 17.1372C3.00881 22.7197 5.28031 24.9912 10.8628 25.5325L11.508 25.5862L12.1835 25.6258C12.2978 25.6317 12.4145 25.6375 12.5323 25.641L13.251 25.6608L14 25.6667L14.749 25.6608L15.4676 25.641L15.8165 25.6258L16.492 25.5862L17.1371 25.5325C22.7196 24.9912 24.9911 22.7197 25.5325 17.1372L25.5861 16.492L25.6258 15.8165C25.6316 15.7022 25.6375 15.5855 25.641 15.4677L25.6608 14.749L25.6666 14L25.6608 13.251L25.641 12.5323L25.6258 12.1835L25.5861 11.508L25.5325 10.8628C24.9911 5.28033 22.7196 3.00883 17.1371 2.4675L16.492 2.41383L15.8165 2.37417C15.7002 2.36849 15.584 2.36344 15.4676 2.359L14.749 2.33917L14.378 2.3345L14 2.33333ZM16.6751 10.8418C16.8851 10.6326 17.1668 10.5111 17.4631 10.5021C17.7594 10.493 18.048 10.5971 18.2703 10.7931C18.4926 10.9892 18.632 11.2625 18.6601 11.5576C18.6882 11.8526 18.603 12.1473 18.4216 12.3818L18.3248 12.4915L13.6581 17.1582C13.4573 17.359 13.19 17.4797 12.9064 17.4975C12.6229 17.5154 12.3426 17.4291 12.1181 17.255L12.0085 17.1582L9.67515 14.8248C9.46591 14.6149 9.34443 14.3332 9.33538 14.0369C9.32633 13.7406 9.4304 13.452 9.62644 13.2297C9.82248 13.0073 10.0958 12.868 10.3909 12.8399C10.6859 12.8118 10.9807 12.897 11.2151 13.0783L11.3248 13.1752L12.8333 14.6825L16.6751 10.8418Z"/>
</g>
<defs>
<clipPath id="clip0_146_2702">
<rect width="28" height="28" fill="white"/>
</clipPath>
</defs>
</svg>
