<svg width="20" height="20" viewBox="0 0 20 20" fill="none" xmlns="http://www.w3.org/2000/svg">
  <g id="CheckButton">
    <circle id="Ellipse 121" cx="10" cy="10" r="8" fill="#FF2C2C" />
    <path id="Union" fill-rule="evenodd" clip-rule="evenodd"
      d="M13.836 9.03865C14.1896 8.61437 14.1323 7.98381 13.708 7.63024C13.2837 7.27668 12.6531 7.334 12.2996 7.75828L9.12988 11.5619L7.60124 10.1865C7.19068 9.81713 6.55839 9.8505 6.18899 10.2611C5.81959 10.6716 5.85296 11.3039 6.26352 11.6733L8.55984 13.7394C8.56608 13.7451 8.5724 13.7507 8.57881 13.7562C8.90617 14.0397 9.36752 14.0736 9.72617 13.8704C9.82394 13.815 9.9139 13.7421 9.99121 13.6522C9.99592 13.6468 10.0006 13.6412 10.0051 13.6357L13.836 9.03865Z"
      fill="#FAFAFA" />
  </g>
</svg>