<svg width="10" height="9" viewBox="0 0 10 9" fill="none" xmlns="http://www.w3.org/2000/svg">
<path fill-rule="evenodd" clip-rule="evenodd" d="M9.76823 2.33943C10.1218 1.91515 10.0645 1.28459 9.64019 0.931023C9.21592 0.577458 8.58535 0.634783 8.23179 1.05906L3.89673 6.26113L1.66887 4.25663C1.2583 3.88723 0.626018 3.9206 0.256618 4.33117C-0.112782 4.74173 -0.0794123 5.37402 0.331151 5.74342L3.32671 8.43864C3.33287 8.44424 3.33912 8.44978 3.34544 8.45526C3.43416 8.53212 3.53272 8.59066 3.63642 8.6311C3.91739 8.74076 4.23462 8.71695 4.49568 8.56807C4.59144 8.51345 4.67965 8.442 4.75574 8.35413C4.76128 8.34775 4.76672 8.34131 4.77207 8.33482L9.76823 2.33943Z" fill="#FAFAFA"/>
</svg>
