<svg width="288" height="159" viewBox="0 0 288 159" fill="none" xmlns="http://www.w3.org/2000/svg">
<path d="M197.368 7.97422L280.454 57.9575C285.137 60.7741 288 65.8384 288 71.3024V143.278C288 151.879 281.027 158.852 272.426 158.852H107.346C98.7447 158.852 91.7721 151.879 91.7721 143.278V71.2473C91.7721 65.8131 94.6047 60.7719 99.2461 57.9457L181.241 8.01752C186.19 5.00383 192.403 4.98715 197.368 7.97422Z" fill="#FF4C4C"/>
<rect width="12.4589" height="20.2457" rx="6.22946" transform="matrix(-1 0 0 1 207.017 73.1973)" fill="#18181B"/>
<rect width="12.4589" height="20.2457" rx="6.22946" transform="matrix(-1 0 0 1 166.525 73.1973)" fill="#18181B"/>
<path d="M186.586 96.512C187.578 105.839 184.419 122.008 163.842 112.064" stroke="#18181B" stroke-width="6.22946" stroke-linecap="round"/>
<path d="M259.908 3.17349C259.941 1.43059 258.537 0 256.793 0H231.935C230.215 0 228.82 1.39451 228.82 3.11473V21.5813C228.82 22.6838 229.403 23.7042 230.353 24.2642L254.593 38.5598C256.647 39.7711 259.245 38.3197 259.289 35.9357L259.908 3.17349Z" fill="#FF4C4C"/>
<path d="M130.85 96.6604L90.6703 62.388L81.7963 118.862L129.875 101.912C132.115 101.122 132.658 98.2019 130.85 96.6604Z" fill="#6087F5"/>
<path d="M95.6003 92.2107C98.1453 76.3045 95.2831 62.6219 89.2076 61.6498C83.132 60.6778 76.1436 72.7842 73.5986 88.6905C71.0536 104.597 73.9157 118.279 79.9913 119.251C86.0669 120.223 93.0553 108.117 95.6003 92.2107Z" fill="#FFDA45"/>
<path d="M70.979 17.4648L67.6712 36.0609" stroke="#FFDA45" stroke-width="9.24634" stroke-linecap="square"/>
<path d="M7.00012 63.3906L20.8836 76.1971" stroke="#F06647" stroke-width="9.24634" stroke-linecap="square"/>
<path d="M78.4163 72.6367L86.6353 78.9773" stroke="#FF4C4C" stroke-width="9.24634" stroke-linecap="square"/>
<path d="M66.0427 106.578L78.4162 100.376" stroke="#73B853" stroke-width="9.24634" stroke-linecap="square"/>
<path d="M31.1572 101.402L43.8297 103.189" stroke="#41AEE1" stroke-width="9.24634" stroke-linecap="square"/>
<path d="M43.4236 49.0068L55.8143 63.2625" stroke="#6087F5" stroke-width="9.24634" stroke-linecap="square"/>
</svg>
