<svg width="288" height="159" viewBox="0 0 288 159" fill="none" xmlns="http://www.w3.org/2000/svg">
<path d="M197.368 7.97422L280.454 57.9575C285.137 60.7741 288 65.8384 288 71.3024V143.278C288 151.879 281.027 158.852 272.426 158.852H107.346C98.7447 158.852 91.7721 151.879 91.7721 143.278V71.2473C91.7721 65.8131 94.6047 60.7719 99.2461 57.9457L181.241 8.01752C186.19 5.00383 192.403 4.98715 197.368 7.97422Z" fill="#FFDA45"/>
<rect width="12.4589" height="20.2457" rx="6.22946" transform="matrix(-1 0 0 1 207.017 73.1973)" fill="#18181B"/>
<rect width="12.4589" height="20.2457" rx="6.22946" transform="matrix(-1 0 0 1 166.526 73.1973)" fill="#18181B"/>
<path d="M186.586 96.512C187.578 105.839 184.419 122.008 163.842 112.064" stroke="#18181B" stroke-width="6.22946" stroke-linecap="round"/>
<path d="M259.907 3.17349C259.94 1.43059 258.536 0 256.793 0H231.935C230.215 0 228.82 1.39451 228.82 3.11473V21.5813C228.82 22.6838 229.403 23.7042 230.352 24.2642L254.593 38.5598C256.647 39.7711 259.244 38.3197 259.289 35.9357L259.907 3.17349Z" fill="#FFDA45"/>
<path d="M130.851 96.6604L90.6705 62.388L81.7966 118.862L129.875 101.912C132.115 101.122 132.658 98.2019 130.851 96.6604Z" fill="#6087F5"/>
<path d="M95.6005 92.2107C98.1455 76.3045 95.2834 62.6219 89.2078 61.6498C83.1322 60.6778 76.1438 72.7842 73.5988 88.6905C71.0539 104.597 73.916 118.279 79.9915 119.251C86.0671 120.223 93.0555 108.117 95.6005 92.2107Z" fill="#FFDA45"/>
<path d="M70.9795 17.4648L67.6717 36.0609" stroke="#FFDA45" stroke-width="9.24634" stroke-linecap="square"/>
<path d="M7.00049 63.3906L20.884 76.1971" stroke="#F06647" stroke-width="9.24634" stroke-linecap="square"/>
<path d="M78.4165 72.6367L86.6355 78.9773" stroke="#FF4C4C" stroke-width="9.24634" stroke-linecap="square"/>
<path d="M66.043 106.578L78.4165 100.376" stroke="#73B853" stroke-width="9.24634" stroke-linecap="square"/>
<path d="M31.1572 101.402L43.8297 103.189" stroke="#41AEE1" stroke-width="9.24634" stroke-linecap="square"/>
<path d="M43.4238 49.0068L55.8146 63.2625" stroke="#6087F5" stroke-width="9.24634" stroke-linecap="square"/>
</svg>
