<svg width="111" height="60" viewBox="0 0 111 60" fill="none" xmlns="http://www.w3.org/2000/svg">
<path d="M26.3214 15.7458L3.01603 29.7659C1.25667 30.8243 0.180664 32.7273 0.180664 34.7805V54.0996C0.180664 57.3316 2.80072 59.9517 6.03273 59.9517H52.3286C55.5606 59.9517 58.1807 57.3316 58.1807 54.0996V34.7598C58.1807 32.7178 57.1163 30.8235 55.3722 29.7615L32.3816 15.762C30.5219 14.6296 28.1872 14.6233 26.3214 15.7458Z" fill="#E4E4E7"/>
<rect x="24.1172" y="34.6357" width="3.68254" height="5.98413" rx="1.84127" fill="#52525B"/>
<rect x="36.0854" y="34.6357" width="3.68254" height="5.98413" rx="1.84127" fill="#52525B"/>
<path d="M8.48881 14.1925C8.47645 13.5376 9.00397 13 9.65901 13H16.5022C17.1486 13 17.6727 13.524 17.6727 14.1704V19.2362C17.6727 19.6505 17.4536 20.0339 17.0968 20.2444L10.4234 24.18C9.65163 24.6351 8.67555 24.0897 8.65865 23.1939L8.48881 14.1925Z" fill="#E4E4E7"/>
<circle cx="32.8632" cy="42.9198" r="2.07999" fill="#52525B"/>
<path fill-rule="evenodd" clip-rule="evenodd" d="M87.0001 32C99.6029 32 109.82 25.0604 109.82 16.5C109.82 7.93959 99.6029 1 87.0001 1C74.3973 1 64.1807 7.93959 64.1807 16.5C64.1807 20.3666 66.2651 23.9025 69.7122 26.6177L67.8901 28.9864C67.351 29.6872 68.0919 30.6482 68.9068 30.305L72.4522 28.8123C72.5712 28.7621 72.6705 28.6913 72.7496 28.6067C76.6545 30.7301 81.609 32 87.0001 32Z" fill="#E4E4E7"/>
<path d="M69.7122 26.6177L70.0535 26.8802L70.313 26.5428L69.9786 26.2794L69.7122 26.6177ZM67.8901 28.9864L68.2314 29.2489H68.2314L67.8901 28.9864ZM68.9068 30.305L68.7398 29.9082L68.9068 30.305ZM72.4522 28.8123L72.6192 29.2091L72.4522 28.8123ZM72.7496 28.6067L72.9553 28.2285L72.6627 28.0694L72.4352 28.3126L72.7496 28.6067ZM109.389 16.5C109.389 20.5952 106.945 24.352 102.894 27.104C98.8448 29.8544 93.2267 31.5694 87.0001 31.5694V32.4306C93.3763 32.4306 99.168 30.6758 103.378 27.8163C107.585 24.9584 110.25 20.9652 110.25 16.5H109.389ZM87.0001 1.43056C93.2267 1.43056 98.8448 3.14561 102.894 5.89601C106.945 8.64798 109.389 12.4048 109.389 16.5H110.25C110.25 12.0348 107.585 8.04161 103.378 5.18368C99.168 2.32418 93.3763 0.569444 87.0001 0.569444V1.43056ZM64.6112 16.5C64.6112 12.4048 67.0547 8.64798 71.1062 5.89601C75.1554 3.14561 80.7735 1.43056 87.0001 1.43056V0.569444C80.6239 0.569444 74.8322 2.32418 70.6224 5.18368C66.4149 8.04161 63.7501 12.0348 63.7501 16.5H64.6112ZM69.9786 26.2794C66.6049 23.6221 64.6112 20.2005 64.6112 16.5H63.7501C63.7501 20.5328 65.9252 24.183 69.4458 26.9559L69.9786 26.2794ZM68.2314 29.2489L70.0535 26.8802L69.371 26.3551L67.5489 28.7239L68.2314 29.2489ZM68.7398 29.9082C68.3323 30.0798 67.9619 29.5993 68.2314 29.2489L67.5489 28.7239C66.7402 29.7751 67.8515 31.2165 69.0739 30.7018L68.7398 29.9082ZM72.2851 28.4154L68.7398 29.9082L69.0739 30.7018L72.6192 29.2091L72.2851 28.4154ZM72.4352 28.3126C72.3975 28.3529 72.3484 28.3888 72.2851 28.4154L72.6192 29.2091C72.7941 29.1355 72.9435 29.0297 73.064 28.9009L72.4352 28.3126ZM87.0001 31.5694C81.6743 31.5694 76.7915 30.3146 72.9553 28.2285L72.5439 28.985C76.5174 31.1457 81.5437 32.4306 87.0001 32.4306V31.5694Z" fill="#E4E4E7"/>
<circle cx="76.8358" cy="16.6552" r="2.65518" fill="#A1A1AA"/>
<circle cx="86.4218" cy="16.6552" r="2.65518" fill="#A1A1AA"/>
<circle cx="95.8358" cy="16.6552" r="2.65518" fill="#A1A1AA"/>
</svg>
