<svg width="53" height="20" viewBox="0 0 53 20" fill="none" xmlns="http://www.w3.org/2000/svg">
<g id="Group 33545">
<path id="Vector 4" d="M11.6391 0.624001L0.969013 7.04296C0.367734 7.40468 0 8.05505 0 8.75674V18C0 19.1046 0.895429 20 2 20H23.2C24.3046 20 25.2 19.1046 25.2 18V8.74967C25.2 8.0518 24.8362 7.4044 24.2402 7.04144L13.7103 0.629562C13.0747 0.242538 12.2768 0.240395 11.6391 0.624001Z" fill="#FF4C4C"/>
<path id="Vector 5" d="M38.6391 0.624001L27.969 7.04296C27.3677 7.40468 27 8.05505 27 8.75674V18C27 19.1046 27.8954 20 29 20H50.2C51.3046 20 52.2 19.1046 52.2 18V8.74967C52.2 8.0518 51.8362 7.4044 51.2402 7.04144L40.7103 0.629562C40.0747 0.242538 39.2768 0.240395 38.6391 0.624001Z" fill="#FFDA45"/>
<g id="Group 33345">
<rect id="Rectangle 1482498" x="10.6" y="9.00098" width="1.6" height="2.6" rx="0.8" fill="#18181B"/>
<rect id="Rectangle 1482499" x="15.8" y="9.00098" width="1.6" height="2.6" rx="0.8" fill="#18181B"/>
<path id="Vector 9" d="M13.2238 11.9949C13.0963 13.1928 13.502 15.2692 16.1446 13.9921" stroke="#18181B" stroke-width="0.8" stroke-linecap="round"/>
</g>
<g id="Group 33346">
<rect id="Rectangle 1482498_2" width="1.6" height="2.6" rx="0.8" transform="matrix(-1 0 0 1 41 9.00098)" fill="#18181B"/>
<rect id="Rectangle 1482499_2" width="1.6" height="2.6" rx="0.8" transform="matrix(-1 0 0 1 35.8 9.00098)" fill="#18181B"/>
<path id="Vector 9_2" d="M38.3762 11.9949C38.5037 13.1928 38.098 15.2692 35.4554 13.9921" stroke="#18181B" stroke-width="0.8" stroke-linecap="round"/>
</g>
<path id="Rectangle 1482503" d="M2.6077 0.807936C2.60347 0.584109 2.78376 0.400391 3.00762 0.400391H6.20001C6.42092 0.400391 6.60001 0.579477 6.60001 0.800391V3.17191C6.60001 3.31349 6.52516 3.44453 6.4032 3.51646L3.2902 5.35233C3.02644 5.50788 2.69286 5.32148 2.68708 5.01533L2.6077 0.807936Z" fill="#FF4C4C"/>
<path id="Rectangle 1482504" d="M49.7923 0.807936C49.7965 0.584109 49.6162 0.400391 49.3924 0.400391H46.2C45.9791 0.400391 45.8 0.579477 45.8 0.800391V3.17191C45.8 3.31349 45.8748 3.44453 45.9968 3.51646L49.1098 5.35233C49.3736 5.50788 49.7071 5.32148 49.7129 5.01533L49.7923 0.807936Z" fill="#FFDA45"/>
</g>
</svg>
