<svg width="28" height="28" viewBox="0 0 28 28" fill="none" xmlns="http://www.w3.org/2000/svg">
<g clip-path="url(#clip0_112_2521)">
<path d="M8.14215 3.58633C9.17472 3.4104 10.2336 3.46844 11.2408 3.75617C12.2479 4.0439 13.1777 4.55399 13.9615 5.24883L14.0047 5.28734L14.0443 5.25233C14.7924 4.59585 15.6718 4.10643 16.624 3.81673C17.5762 3.52703 18.5792 3.44371 19.5662 3.57233L19.8532 3.61433C21.0972 3.82913 22.26 4.37635 23.2184 5.19805C24.1768 6.01975 24.8951 7.08534 25.2973 8.28198C25.6996 9.47861 25.7707 10.7618 25.5032 11.9955C25.2357 13.2293 24.6395 14.3677 23.7778 15.2903L23.5678 15.5062L23.5118 15.554L14.8202 24.1628C14.6196 24.3614 14.3538 24.4804 14.0722 24.498C13.7905 24.5156 13.512 24.4305 13.2883 24.2585L13.1787 24.1628L4.43682 15.5038C3.51074 14.6028 2.85213 13.463 2.53394 12.2106C2.21574 10.9583 2.25037 9.64238 2.63399 8.40854C3.01761 7.17469 3.73526 6.0711 4.70744 5.21998C5.67963 4.36887 6.86842 3.80345 8.14215 3.58633Z" fill="#18181B"/>
</g>
<defs>
<clipPath id="clip0_112_2521">
<rect width="28" height="28" fill="white"/>
</clipPath>
</defs>
</svg>
