<svg width="28" height="28" viewBox="0 0 28 28" fill="none" xmlns="http://www.w3.org/2000/svg">
<g id="location 1" clip-path="url(#clip0_146_2715)">
<path id="Vector" d="M24.3728 2.34034L24.4965 2.33334L24.6481 2.34267L24.7531 2.36134L24.8966 2.40217L25.0215 2.45584L25.1381 2.52234L25.2431 2.6005L25.3388 2.688L25.3995 2.75684L25.4951 2.89217L25.5558 3.00417C25.6106 3.12084 25.6456 3.2445 25.6608 3.37284L25.6666 3.4965C25.6666 3.584 25.6573 3.67034 25.6386 3.75317L25.5978 3.89667L17.9771 24.9865C17.8327 25.301 17.601 25.5674 17.3096 25.7542C17.0182 25.9409 16.6794 26.0401 16.3333 26.04C16.0216 26.041 15.715 25.9612 15.4432 25.8085C15.1715 25.6558 14.944 25.4353 14.7828 25.1685L14.707 25.0203L10.7963 17.2013L3.01463 13.3093C2.7267 13.1776 2.47838 12.9727 2.29453 12.7149C2.11067 12.4571 1.99772 12.1556 1.96696 11.8405L1.95996 11.6667C1.95996 11.0133 2.31113 10.416 2.94113 10.0683L3.10446 9.98667L24.1243 2.39634L24.248 2.36134L24.3728 2.34034Z" fill="#A1A1AA"/>
</g>
<defs>
<clipPath id="clip0_146_2715">
<rect width="28" height="28" fill="white"/>
</clipPath>
</defs>
</svg>
