<svg width="30" height="30" viewBox="0 0 30 30" fill="none" xmlns="http://www.w3.org/2000/svg">
<path d="M15 26.25C14.7089 26.25 14.4651 26.1517 14.2685 25.9551C14.0712 25.7579 13.9726 25.5137 13.9726 25.2226V24.1952C11.8322 23.9555 9.99589 23.0695 8.4637 21.5373C6.93082 20.0045 6.04452 18.1678 5.80479 16.0274H4.7774C4.4863 16.0274 4.24212 15.9288 4.04486 15.7315C3.84829 15.5349 3.75 15.2911 3.75 15C3.75 14.7089 3.84829 14.4647 4.04486 14.2675C4.24212 14.0709 4.4863 13.9726 4.7774 13.9726H5.80479C6.04452 11.8322 6.93082 9.99555 8.4637 8.46267C9.99589 6.93048 11.8322 6.04452 13.9726 5.80479V4.7774C13.9726 4.4863 14.0712 4.24212 14.2685 4.04486C14.4651 3.84829 14.7089 3.75 15 3.75C15.2911 3.75 15.5353 3.84829 15.7325 4.04486C15.9291 4.24212 16.0274 4.4863 16.0274 4.7774V5.80479C18.1678 6.04452 20.0045 6.93048 21.5373 8.46267C23.0695 9.99555 23.9555 11.8322 24.1952 13.9726H25.2226C25.5137 13.9726 25.7579 14.0709 25.9551 14.2675C26.1517 14.4647 26.25 14.7089 26.25 15C26.25 15.2911 26.1517 15.5349 25.9551 15.7315C25.7579 15.9288 25.5137 16.0274 25.2226 16.0274H24.1952C23.9555 18.1678 23.0695 20.0045 21.5373 21.5373C20.0045 23.0695 18.1678 23.9555 16.0274 24.1952V25.2226C16.0274 25.5137 15.9291 25.7579 15.7325 25.9551C15.5353 26.1517 15.2911 26.25 15 26.25ZM15 22.1918C16.9863 22.1918 18.6815 21.4897 20.0856 20.0856C21.4897 18.6815 22.1918 16.9863 22.1918 15C22.1918 13.0137 21.4897 11.3185 20.0856 9.91438C18.6815 8.51027 16.9863 7.80822 15 7.80822C13.0137 7.80822 11.3185 8.51027 9.91438 9.91438C8.51027 11.3185 7.80822 13.0137 7.80822 15C7.80822 16.9863 8.51027 18.6815 9.91438 20.0856C11.3185 21.4897 13.0137 22.1918 15 22.1918ZM15 19.1096C13.8699 19.1096 12.9024 18.7072 12.0976 17.9024C11.2928 17.0976 10.8904 16.1301 10.8904 15C10.8904 13.8699 11.2928 12.9024 12.0976 12.0976C12.9024 11.2928 13.8699 10.8904 15 10.8904C16.1301 10.8904 17.0976 11.2928 17.9024 12.0976C18.7072 12.9024 19.1096 13.8699 19.1096 15C19.1096 16.1301 18.7072 17.0976 17.9024 17.9024C17.0976 18.7072 16.1301 19.1096 15 19.1096Z" fill="#18181B"/>
</svg>
