<svg width="28" height="28" viewBox="0 0 28 28" fill="none" xmlns="http://www.w3.org/2000/svg">
<g id="map-pin 1" clip-path="url(#clip0_146_2699)">
<path id="Vector" d="M21.4246 5.40867C23.3523 7.33615 24.4548 9.9378 24.499 12.6635C24.5432 15.3892 23.5256 18.0252 21.6614 20.0142L21.4246 20.2592L16.4744 25.2082C15.8463 25.8359 15.0031 26.2014 14.1156 26.2306C13.2281 26.2599 12.3627 25.9507 11.6946 25.3657L11.5266 25.2082L6.57528 20.258C4.60613 18.2889 3.49988 15.6181 3.49988 12.8333C3.49988 10.0485 4.60613 7.37781 6.57528 5.40867C8.54442 3.43952 11.2152 2.33327 13.9999 2.33327C16.7847 2.33327 19.4555 3.43952 21.4246 5.40867ZM13.9999 9.33333C13.5403 9.33333 13.0852 9.42386 12.6606 9.59976C12.2359 9.77565 11.8501 10.0335 11.5251 10.3585C11.2001 10.6835 10.9423 11.0693 10.7664 11.4939C10.5905 11.9186 10.4999 12.3737 10.4999 12.8333C10.4999 13.293 10.5905 13.7481 10.7664 14.1727C10.9423 14.5974 11.2001 14.9832 11.5251 15.3082C11.8501 15.6332 12.2359 15.891 12.6606 16.0669C13.0852 16.2428 13.5403 16.3333 13.9999 16.3333C14.9282 16.3333 15.8184 15.9646 16.4748 15.3082C17.1312 14.6518 17.4999 13.7616 17.4999 12.8333C17.4999 11.9051 17.1312 11.0148 16.4748 10.3585C15.8184 9.70208 14.9282 9.33333 13.9999 9.33333Z" fill="#A1A1AA"/>
</g>
<defs>
<clipPath id="clip0_146_2699">
<rect width="28" height="28" fill="white"/>
</clipPath>
</defs>
</svg>
