<svg width="28" height="28" viewBox="0 0 28 28" fill="none" xmlns="http://www.w3.org/2000/svg">
  <g id="Mypage" clip-path="url(#clip0_146_2705)">
    <path id="Vector"
      d="M14 2.33333C15.1537 2.33333 16.2816 2.67545 17.2408 3.31643C18.2001 3.9574 18.9478 4.86844 19.3893 5.93435C19.8308 7.00025 19.9463 8.17314 19.7213 9.30469C19.4962 10.4362 18.9406 11.4756 18.1248 12.2915C17.309 13.1073 16.2696 13.6628 15.138 13.8879C14.0065 14.113 12.8336 13.9975 11.7677 13.556C10.7018 13.1145 9.79076 12.3668 9.14978 11.4075C8.50881 10.4482 8.16669 9.32039 8.16669 8.16667L8.17252 7.9135C8.23776 6.41171 8.88023 4.99307 9.96595 3.95344C11.0517 2.9138 12.4968 2.33342 14 2.33333Z" />
    <path id="Vector_2"
      d="M16.3333 16.3333C17.8804 16.3333 19.3641 16.9479 20.4581 18.0419C21.5521 19.1358 22.1666 20.6196 22.1666 22.1667V23.3333C22.1666 23.9522 21.9208 24.5457 21.4832 24.9832C21.0456 25.4208 20.4522 25.6667 19.8333 25.6667H8.16665C7.54781 25.6667 6.95432 25.4208 6.51673 24.9832C6.07915 24.5457 5.83331 23.9522 5.83331 23.3333V22.1667C5.83331 20.6196 6.44789 19.1358 7.54186 18.0419C8.63582 16.9479 10.1196 16.3333 11.6666 16.3333H16.3333Z" />
  </g>
  <defs>
    <clipPath id="clip0_146_2705">
      <rect width="28" height="28" fill="white" />
    </clipPath>
  </defs>
</svg>