<svg width="20" height="20" viewBox="0 0 20 20" fill="none" xmlns="http://www.w3.org/2000/svg">
<g clip-path="url(#clip0_209_2983)">
<path d="M2.5 10C2.5 10.9849 2.69399 11.9602 3.0709 12.8701C3.44781 13.7801 4.00026 14.6069 4.6967 15.3033C5.39314 15.9997 6.21993 16.5522 7.12987 16.9291C8.03982 17.306 9.01509 17.5 10 17.5C10.9849 17.5 11.9602 17.306 12.8701 16.9291C13.7801 16.5522 14.6069 15.9997 15.3033 15.3033C15.9997 14.6069 16.5522 13.7801 16.9291 12.8701C17.306 11.9602 17.5 10.9849 17.5 10C17.5 8.01088 16.7098 6.10322 15.3033 4.6967C13.8968 3.29018 11.9891 2.5 10 2.5C8.01088 2.5 6.10322 3.29018 4.6967 4.6967C3.29018 6.10322 2.5 8.01088 2.5 10Z" stroke="#A1A1AA" stroke-width="1.5" stroke-linecap="round" stroke-linejoin="round"/>
<path d="M10 13.333V13.3422" stroke="#A1A1AA" stroke-width="1.75" stroke-linecap="round" stroke-linejoin="round"/>
<path d="M10 10.8331C10.3748 10.8343 10.739 10.709 11.0339 10.4777C11.3287 10.2463 11.537 9.9223 11.625 9.55799C11.7131 9.19369 11.6758 8.81034 11.5191 8.46985C11.3625 8.12937 11.0956 7.85162 10.7617 7.68147C10.4301 7.51165 10.0509 7.45899 9.68567 7.53207C9.32043 7.60515 8.99066 7.79966 8.75 8.08397" stroke="#A1A1AA" stroke-width="1.75" stroke-linecap="round" stroke-linejoin="round"/>
</g>
<defs>
<clipPath id="clip0_209_2983">
<rect width="20" height="20" fill="white"/>
</clipPath>
</defs>
</svg>
