<svg width="126" height="102" viewBox="0 0 126 102" fill="none" xmlns="http://www.w3.org/2000/svg">
<path d="M58.1955 5.12001L4.84506 37.2148C1.83867 39.0234 0 42.2752 0 45.7837V92C0 97.5229 4.47715 102 10 102H116C121.523 102 126 97.5228 126 92V45.7483C126 42.259 124.181 39.022 121.201 37.2072L68.5513 5.14781C65.3734 3.21269 61.3838 3.20198 58.1955 5.12001Z" fill="#FF4C4C"/>
<rect x="52" y="47" width="8" height="13" rx="4" fill="#18181B"/>
<rect x="78" y="47" width="8" height="13" rx="4" fill="#18181B"/>
<path d="M65.1191 61.9708C64.4816 67.9601 66.5101 78.3423 79.7232 71.9568" stroke="#18181B" stroke-width="4" stroke-linecap="round"/>
<path d="M18.0384 2.03773C18.0173 0.918596 18.9188 0 20.0381 0H36C37.1046 0 38 0.895431 38 2V13.8576C38 14.5655 37.6258 15.2207 37.016 15.5803L21.451 24.7597C20.1322 25.5374 18.4643 24.6055 18.4354 23.0747L18.0384 2.03773Z" fill="#FF4C4C"/>
</svg>
