<svg width="58" height="47" viewBox="0 0 58 47" fill="none" xmlns="http://www.w3.org/2000/svg">
<path d="M26.1407 2.74577L2.83536 16.7659C1.076 17.8243 0 19.7273 0 21.7805V41.0996C0 44.3316 2.62006 46.9517 5.85206 46.9517H52.1479C55.3799 46.9517 58 44.3316 58 41.0996V21.7598C58 19.7178 56.9356 17.8235 55.1915 16.7615L32.201 2.76204C30.3412 1.6296 28.0065 1.62333 26.1407 2.74577Z" fill="#FF4C4C"/>
<rect x="23.9365" y="21.6348" width="3.68254" height="5.98413" rx="1.84127" fill="#18181B"/>
<rect x="35.9047" y="21.6348" width="3.68254" height="5.98413" rx="1.84127" fill="#18181B"/>
<path d="M8.30819 1.19249C8.29583 0.537567 8.82335 0 9.4784 0H16.3216C16.968 0 17.492 0.524012 17.492 1.17041V6.23622C17.492 6.6505 17.273 7.03392 16.9162 7.24437L10.2428 11.18C9.47101 11.6351 8.49493 11.0897 8.47803 10.1939L8.30819 1.19249Z" fill="#FF4C4C"/>
<circle cx="32.6825" cy="29.9198" r="2.07999" fill="#18181B"/>
</svg>
