<svg width="302" height="135" viewBox="0 0 302 135" fill="none" xmlns="http://www.w3.org/2000/svg">
<path d="M135.822 115L136.663 114.458L136.367 114H135.822V115ZM146.638 131.783L147.478 131.241L146.638 131.783ZM153.362 131.783L152.522 131.241L153.362 131.783ZM164.178 115V114H163.633L163.337 114.458L164.178 115ZM0 21V25.625H2V21H0ZM0 34.875V44.125H2V34.875H0ZM0 53.375V62.625H2V53.375H0ZM0 71.875V81.125H2V71.875H0ZM0 90.375V95H2V90.375H0ZM0 95C0 96.4012 0.137375 97.7713 0.399693 99.0973L2.36167 98.7092C2.1245 97.5103 2 96.2702 2 95H0ZM3.53772 106.669C5.0706 108.958 7.04172 110.929 9.33137 112.462L10.444 110.8C8.3716 109.413 6.5871 107.628 5.19966 105.556L3.53772 106.669ZM16.9027 115.6C18.2287 115.863 19.5988 116 21 116V114C19.7298 114 18.4897 113.875 17.2908 113.638L16.9027 115.6ZM21 116H25.7843V114H21V116ZM35.3528 116H44.9213V114H35.3528V116ZM54.4898 116H64.0583V114H54.4898V116ZM73.6269 116H83.1954V114H73.6269V116ZM92.7639 116H102.332V114H92.7639V116ZM111.901 116H121.469V114H111.901V116ZM131.038 116H135.822V114H131.038V116ZM134.982 115.542L137.686 119.737L139.367 118.654L136.663 114.458L134.982 115.542ZM143.093 128.129L145.797 132.324L147.478 131.241L144.774 127.045L143.093 128.129ZM145.797 132.324C147.766 135.38 152.234 135.38 154.203 132.324L152.522 131.241C151.34 133.074 148.66 133.074 147.478 131.241L145.797 132.324ZM154.203 132.324L156.907 128.129L155.226 127.045L152.522 131.241L154.203 132.324ZM162.314 119.737L165.018 115.542L163.337 114.458L160.633 118.654L162.314 119.737ZM164.178 116H169.045V114H164.178V116ZM178.781 116H188.516V114H178.781V116ZM198.251 116H207.986V114H198.251V116ZM217.721 116H227.456V114H217.721V116ZM237.192 116H246.927V114H237.192V116ZM256.662 116H266.397V114H256.662V116ZM276.132 116H281V114H276.132V116ZM281 116C282.401 116 283.771 115.863 285.097 115.6L284.709 113.638C283.51 113.875 282.27 114 281 114V116ZM292.669 112.462C294.958 110.929 296.929 108.958 298.462 106.669L296.8 105.556C295.413 107.628 293.628 109.413 291.556 110.8L292.669 112.462ZM301.6 99.0973C301.863 97.7713 302 96.4012 302 95H300C300 96.2702 299.875 97.5103 299.638 98.7092L301.6 99.0973ZM302 95V90.375H300V95H302ZM302 81.125V71.875H300V81.125H302ZM302 62.625V53.375H300V62.625H302ZM302 44.125V34.875H300V44.125H302ZM302 25.625V21H300V25.625H302ZM302 21C302 19.5988 301.863 18.2287 301.6 16.9027L299.638 17.2908C299.875 18.4897 300 19.7298 300 21H302ZM298.462 9.33137C296.929 7.04172 294.958 5.07061 292.669 3.53773L291.556 5.19966C293.628 6.58711 295.413 8.3716 296.8 10.444L298.462 9.33137ZM285.097 0.399694C283.771 0.137375 282.401 0 281 0V2C282.27 2 283.51 2.1245 284.709 2.36167L285.097 0.399694ZM281 0H276V2H281V0ZM266 0H256V2H266V0ZM246 0H236V2H246V0ZM226 0H216V2H226V0ZM206 0H196V2H206V0ZM186 0H176V2H186V0ZM166 0H156V2H166V0ZM146 0H136V2H146V0ZM126 0H116V2H126V0ZM106 0H96V2H106V0ZM86 0H76V2H86V0ZM66 0H56V2H66V0ZM46 0H36V2H46V0ZM26 0H21V2H26V0ZM21 0C19.5988 0 18.2287 0.137375 16.9027 0.399693L17.2908 2.36167C18.4897 2.1245 19.7298 2 21 2V0ZM9.33137 3.53772C7.04172 5.0706 5.0706 7.04172 3.53772 9.33137L5.19966 10.444C6.5871 8.3716 8.3716 6.5871 10.444 5.19966L9.33137 3.53772ZM0.399693 16.9027C0.137375 18.2287 0 19.5988 0 21H2C2 19.7298 2.1245 18.4897 2.36167 17.2908L0.399693 16.9027Z" fill="#D4D4D8"/>
</svg>
