<svg width="24" height="24" viewBox="0 0 24 24" fill="none" xmlns="http://www.w3.org/2000/svg">
<g id="Property 1=Star Half">
<path id="Star 2" d="M11.1168 1.66284C11.4928 0.954922 12.5072 0.954922 12.8832 1.66284L15.4528 6.50107C15.5974 6.77321 15.8593 6.96352 16.1628 7.01689L21.5583 7.9657C22.3478 8.10453 22.6612 9.06924 22.1041 9.64558L18.2968 13.5846C18.0826 13.8061 17.9826 14.1141 18.0256 14.4192L18.7905 19.8438C18.9024 20.6375 18.0818 21.2338 17.3615 20.8821L12.4388 18.4783C12.1619 18.3431 11.8381 18.3431 11.5612 18.4783L6.63846 20.8821C5.91818 21.2338 5.09755 20.6375 5.20947 19.8438L5.9744 14.4192C6.01743 14.1141 5.91738 13.8061 5.70322 13.5846L1.89586 9.64558C1.33878 9.06924 1.65223 8.10453 2.44168 7.9657L7.83719 7.01689C8.14068 6.96352 8.40262 6.77321 8.54716 6.50107L11.1168 1.66284Z" fill="#D4D4D8"/>
<mask id="mask0_219_3105" style="mask-type:alpha" maskUnits="userSpaceOnUse" x="0" y="0" width="12" height="24">
<rect id="Rectangle 1" width="12" height="24" fill="#D9D9D9"/>
</mask>
<g mask="url(#mask0_219_3105)">
<path id="Star 1" d="M11.1168 1.66284C11.4928 0.954922 12.5072 0.954922 12.8832 1.66284L15.4528 6.50107C15.5974 6.77321 15.8593 6.96352 16.1628 7.01689L21.5583 7.9657C22.3478 8.10453 22.6612 9.06924 22.1041 9.64558L18.2968 13.5846C18.0826 13.8061 17.9826 14.1141 18.0256 14.4192L18.7905 19.8438C18.9024 20.6375 18.0818 21.2338 17.3615 20.8821L12.4388 18.4783C12.1619 18.3431 11.8381 18.3431 11.5612 18.4783L6.63846 20.8821C5.91818 21.2338 5.09755 20.6375 5.20947 19.8438L5.9744 14.4192C6.01743 14.1141 5.91738 13.8061 5.70322 13.5846L1.89586 9.64558C1.33878 9.06924 1.65223 8.10453 2.44168 7.9657L7.83719 7.01689C8.14068 6.96352 8.40262 6.77321 8.54716 6.50107L11.1168 1.66284Z" fill="#FFE16A"/>
</g>
</g>
</svg>
