<svg width="126" height="103" viewBox="0 0 126 103" fill="none" xmlns="http://www.w3.org/2000/svg">
<path d="M106.962 2.03773C106.983 0.918596 106.081 0 104.962 0H89C87.8954 0 87 0.895431 87 2V13.8576C87 14.5655 87.3742 15.2207 87.984 15.5803L103.549 24.7597C104.868 25.5374 106.536 24.6055 106.565 23.0747L106.962 2.03773Z" fill="#FFDA45"/>
<path d="M58.1955 6.12001L4.84506 38.2148C1.83867 40.0234 0 43.2752 0 46.7837V93C0 98.5229 4.47715 103 10 103H116C121.523 103 126 98.5228 126 93V46.7483C126 43.259 124.181 40.022 121.201 38.2072L68.5513 6.14781C65.3734 4.21269 61.3838 4.20198 58.1955 6.12001Z" fill="#FFDA45"/>
<rect width="8" height="13" rx="4" transform="matrix(-1 0 0 1 70 48)" fill="#18181B"/>
<rect width="8" height="13" rx="4" transform="matrix(-1 0 0 1 44 48)" fill="#18181B"/>
<path d="M56.8809 62.9708C57.5184 68.9601 55.4899 79.3423 42.2768 72.9568" stroke="#18181B" stroke-width="4" stroke-linecap="round"/>
</svg>
